<svg preserveAspectRatio="none" width="100%" height="100%" overflow="visible" style="display: block;" viewBox="0 0 19.9937 19.9937" fill="none" xmlns="http://www.w3.org/2000/svg">
<g id="Icon" clip-path="url(#clip0_0_7)">
<path id="Vector" d="M15.8283 9.16376H4.16535C3.24516 9.16376 2.49921 9.90972 2.49921 10.8299V16.6614C2.49921 17.5816 3.24516 18.3275 4.16535 18.3275H15.8283C16.7485 18.3275 17.4945 17.5816 17.4945 16.6614V10.8299C17.4945 9.90972 16.7485 9.16376 15.8283 9.16376Z" stroke="var(--stroke-0, #6B7280)" stroke-width="1.66614" stroke-linecap="round" stroke-linejoin="round"/>
<path id="Vector_2" d="M5.83149 9.16376V5.83149C5.83149 4.72677 6.27033 3.66729 7.05149 2.88614C7.83264 2.10499 8.89211 1.66614 9.99683 1.66614C11.1016 1.66614 12.161 2.10499 12.9422 2.88614C13.7233 3.66729 14.1622 4.72677 14.1622 5.83149V9.16376" stroke="var(--stroke-0, #6B7280)" stroke-width="1.66614" stroke-linecap="round" stroke-linejoin="round"/>
</g>
<defs>
<clipPath id="clip0_0_7">
<rect width="19.9937" height="19.9937" fill="white"/>
</clipPath>
</defs>
</svg>
