<svg width="16" height="16" viewBox="0 0 16 16" fill="none" xmlns="http://www.w3.org/2000/svg">
<g clip-path="url(#clip0_1_3511)">
<path d="M13.3249 6.66245C13.3249 9.989 9.63459 13.4535 8.39538 14.5234C8.27994 14.6102 8.13941 14.6572 7.99497 14.6572C7.85053 14.6572 7.71 14.6102 7.59456 14.5234C6.35535 13.4535 2.66504 9.989 2.66504 6.66245C2.66504 5.24887 3.22658 3.89318 4.22614 2.89362C5.2257 1.89406 6.58139 1.33252 7.99497 1.33252C9.40856 1.33252 10.7642 1.89406 11.7638 2.89362C12.7634 3.89318 13.3249 5.24887 13.3249 6.66245Z" stroke="#6B7280" stroke-width="1.33248" stroke-linecap="round" stroke-linejoin="round"/>
<path d="M7.99482 8.66102C9.09868 8.66102 9.99354 7.76616 9.99354 6.6623C9.99354 5.55843 9.09868 4.66357 7.99482 4.66357C6.89095 4.66357 5.99609 5.55843 5.99609 6.6623C5.99609 7.76616 6.89095 8.66102 7.99482 8.66102Z" stroke="#6B7280" stroke-width="1.33248" stroke-linecap="round" stroke-linejoin="round"/>
</g>
<defs>
<clipPath id="clip0_1_3511">
<rect width="15.9898" height="15.9898" fill="white"/>
</clipPath>
</defs>
</svg>
