<svg width="20" height="20" viewBox="0 0 20 20" fill="none" xmlns="http://www.w3.org/2000/svg">
<path d="M12.496 1.66614H7.49763C7.03753 1.66614 6.66456 2.03912 6.66456 2.49921V4.16535C6.66456 4.62544 7.03753 4.99842 7.49763 4.99842H12.496C12.9561 4.99842 13.3291 4.62544 13.3291 4.16535V2.49921C13.3291 2.03912 12.9561 1.66614 12.496 1.66614Z" stroke="white" stroke-width="1.66614" stroke-linecap="round" stroke-linejoin="round"/>
<path d="M13.3291 3.33228H14.9952C15.4371 3.33228 15.8609 3.50781 16.1734 3.82028C16.4858 4.13274 16.6614 4.55653 16.6614 4.99841V16.6614C16.6614 17.1033 16.4858 17.5271 16.1734 17.8395C15.8609 18.152 15.4371 18.3275 14.9952 18.3275H4.99842C4.55653 18.3275 4.13274 18.152 3.82028 17.8395C3.50782 17.5271 3.33228 17.1033 3.33228 16.6614V4.99841C3.33228 4.55653 3.50782 4.13274 3.82028 3.82028C4.13274 3.50781 4.55653 3.33228 4.99842 3.33228H6.66455" stroke="white" stroke-width="1.66614" stroke-linecap="round" stroke-linejoin="round"/>
<path d="M9.99683 9.16376H13.3291" stroke="white" stroke-width="1.66614" stroke-linecap="round" stroke-linejoin="round"/>
<path d="M9.99683 13.3291H13.3291" stroke="white" stroke-width="1.66614" stroke-linecap="round" stroke-linejoin="round"/>
<path d="M6.66456 9.16376H6.67289" stroke="white" stroke-width="1.66614" stroke-linecap="round" stroke-linejoin="round"/>
<path d="M6.66456 13.3291H6.67289" stroke="white" stroke-width="1.66614" stroke-linecap="round" stroke-linejoin="round"/>
</svg>
