<svg preserveAspectRatio="none" width="100%" height="100%" overflow="visible" style="display: block;" viewBox="0 0 19.9937 19.9937" fill="none" xmlns="http://www.w3.org/2000/svg">
<g id="Icon" clip-path="url(#clip0_174_685)">
<path id="Vector" d="M8.33069 16.6614C8.33062 16.8162 8.37369 16.968 8.45506 17.0997C8.53644 17.2314 8.6529 17.3378 8.79138 17.407L10.4575 18.2401C10.5846 18.3035 10.7257 18.3335 10.8676 18.3271C11.0095 18.3206 11.1473 18.278 11.2681 18.2033C11.3889 18.1286 11.4886 18.0243 11.5577 17.9002C11.6268 17.7762 11.663 17.6365 11.663 17.4945V11.663C11.6632 11.2501 11.8166 10.852 12.0937 10.5458L18.1109 3.89043C18.2188 3.77094 18.2897 3.62276 18.3151 3.46381C18.3405 3.30486 18.3193 3.14195 18.2541 2.99478C18.1889 2.84761 18.0825 2.72249 17.9477 2.63454C17.8128 2.54659 17.6554 2.49959 17.4945 2.49921H2.49921C2.3381 2.49927 2.18046 2.54604 2.04539 2.63386C1.91032 2.72169 1.80362 2.84679 1.7382 2.99402C1.67279 3.14125 1.65147 3.30429 1.67682 3.4634C1.70218 3.6225 1.77313 3.77083 1.88107 3.89043L7.9 10.5458C8.17702 10.852 8.33051 11.2501 8.33069 11.663V16.6614Z" stroke="var(--stroke-0, #2267B2)" stroke-width="1.66614" stroke-linecap="round" stroke-linejoin="round"/>
</g>
<defs>
<clipPath id="clip0_174_685">
<rect width="19.9937" height="19.9937" fill="white"/>
</clipPath>
</defs>
</svg>
