<svg width="16" height="16" viewBox="0 0 16 16" fill="none" xmlns="http://www.w3.org/2000/svg">
<g clip-path="url(#clip0_1_2234)">
<path d="M14.6573 11.2729V13.2716C14.6581 13.4572 14.6201 13.6408 14.5457 13.8109C14.4714 13.9809 14.3624 14.1335 14.2257 14.2589C14.0889 14.3844 13.9275 14.4799 13.7517 14.5393C13.576 14.5987 13.3897 14.6208 13.2049 14.6041C11.1548 14.3814 9.18549 13.6808 7.45526 12.5588C5.84551 11.5359 4.48072 10.1711 3.45781 8.56131C2.33185 6.82322 1.63114 4.84434 1.41245 2.78499C1.3958 2.60075 1.4177 2.41507 1.47674 2.23975C1.53579 2.06444 1.63069 1.90335 1.75541 1.76672C1.88013 1.6301 2.03193 1.52094 2.20114 1.44619C2.37036 1.37145 2.55328 1.33276 2.73827 1.33258H4.737C5.06033 1.3294 5.37378 1.4439 5.61894 1.65473C5.8641 1.86557 6.02423 2.15836 6.06948 2.47852C6.15384 3.11816 6.31029 3.7462 6.53585 4.35066C6.62549 4.58912 6.64489 4.84828 6.59175 5.09744C6.53861 5.34659 6.41517 5.57528 6.23604 5.75643L5.38991 6.60255C6.33835 8.27052 7.7194 9.65157 9.38736 10.6L10.2335 9.75388C10.4146 9.57475 10.6433 9.4513 10.8925 9.39817C11.1416 9.34503 11.4008 9.36443 11.6393 9.45407C12.2437 9.67963 12.8718 9.83608 13.5114 9.92044C13.835 9.9661 14.1306 10.1291 14.3419 10.3785C14.5532 10.6278 14.6654 10.9462 14.6573 11.2729Z" stroke="#6B7280" stroke-width="1.33248" stroke-linecap="round" stroke-linejoin="round"/>
</g>
<defs>
<clipPath id="clip0_1_2234">
<rect width="15.9898" height="15.9898" fill="white"/>
</clipPath>
</defs>
</svg>
