<svg width="20" height="20" viewBox="0 0 20 20" fill="none" xmlns="http://www.w3.org/2000/svg">
<path d="M13.3291 17.4945V15.8283C13.3291 14.9446 12.978 14.097 12.3531 13.4721C11.7282 12.8471 10.8806 12.496 9.99683 12.496H4.99842C4.11464 12.496 3.26706 12.8471 2.64214 13.4721C2.01722 14.097 1.66614 14.9446 1.66614 15.8283V17.4945" stroke="white" stroke-width="1.66614" stroke-linecap="round" stroke-linejoin="round"/>
<path d="M7.49762 9.16376C9.33799 9.16376 10.8299 7.67185 10.8299 5.83148C10.8299 3.99112 9.33799 2.49921 7.49762 2.49921C5.65726 2.49921 4.16535 3.99112 4.16535 5.83148C4.16535 7.67185 5.65726 9.16376 7.49762 9.16376Z" stroke="white" stroke-width="1.66614" stroke-linecap="round" stroke-linejoin="round"/>
<path d="M18.3275 17.4945V15.8283C18.327 15.09 18.0812 14.3728 17.6289 13.7892C17.1765 13.2057 16.5432 12.7889 15.8283 12.6043" stroke="white" stroke-width="1.66614" stroke-linecap="round" stroke-linejoin="round"/>
<path d="M13.3291 2.60751C14.0459 2.79104 14.6812 3.20791 15.1349 3.7924C15.5886 4.37689 15.8349 5.09575 15.8349 5.83566C15.8349 6.57556 15.5886 7.29443 15.1349 7.87892C14.6812 8.46341 14.0459 8.88028 13.3291 9.0638" stroke="white" stroke-width="1.66614" stroke-linecap="round" stroke-linejoin="round"/>
</svg>
