<svg width="20" height="20" viewBox="0 0 20 20" fill="none" xmlns="http://www.w3.org/2000/svg">
<path d="M7.49762 2.49921H3.33228C2.87219 2.49921 2.49921 2.87218 2.49921 3.33228V9.16376C2.49921 9.62385 2.87219 9.99683 3.33228 9.99683H7.49762C7.95772 9.99683 8.33069 9.62385 8.33069 9.16376V3.33228C8.33069 2.87218 7.95772 2.49921 7.49762 2.49921Z" stroke="#2267B2" stroke-width="1.66614" stroke-linecap="round" stroke-linejoin="round"/>
<path d="M16.6614 2.49921H12.496C12.0359 2.49921 11.663 2.87218 11.663 3.33228V5.83148C11.663 6.29158 12.0359 6.66455 12.496 6.66455H16.6614C17.1215 6.66455 17.4945 6.29158 17.4945 5.83148V3.33228C17.4945 2.87218 17.1215 2.49921 16.6614 2.49921Z" stroke="#2267B2" stroke-width="1.66614" stroke-linecap="round" stroke-linejoin="round"/>
<path d="M16.6614 9.99683H12.496C12.0359 9.99683 11.663 10.3698 11.663 10.8299V16.6614C11.663 17.1215 12.0359 17.4945 12.496 17.4945H16.6614C17.1215 17.4945 17.4945 17.1215 17.4945 16.6614V10.8299C17.4945 10.3698 17.1215 9.99683 16.6614 9.99683Z" stroke="#2267B2" stroke-width="1.66614" stroke-linecap="round" stroke-linejoin="round"/>
<path d="M7.49762 13.3291H3.33228C2.87219 13.3291 2.49921 13.7021 2.49921 14.1622V16.6614C2.49921 17.1215 2.87219 17.4945 3.33228 17.4945H7.49762C7.95772 17.4945 8.33069 17.1215 8.33069 16.6614V14.1622C8.33069 13.7021 7.95772 13.3291 7.49762 13.3291Z" stroke="#2267B2" stroke-width="1.66614" stroke-linecap="round" stroke-linejoin="round"/>
</svg>
