<svg width="16" height="16" viewBox="0 0 16 16" fill="none" xmlns="http://www.w3.org/2000/svg">
<g clip-path="url(#clip0_1_2242)">
<path d="M14.107 4.53848C14.4592 4.18632 14.6572 3.70866 14.6572 3.21057C14.6573 2.71248 14.4595 2.23476 14.1073 1.88251C13.7552 1.53026 13.2775 1.33234 12.7794 1.33228C12.2813 1.33221 11.8036 1.53002 11.4514 1.88218L2.55969 10.7758C2.405 10.9301 2.29061 11.12 2.22657 11.3288L1.34647 14.2283C1.32925 14.2859 1.32795 14.3471 1.3427 14.4054C1.35746 14.4637 1.38772 14.5169 1.43028 14.5594C1.47283 14.6019 1.5261 14.6321 1.58442 14.6468C1.64274 14.6614 1.70394 14.66 1.76154 14.6427L4.66169 13.7633C4.87033 13.6998 5.06021 13.5861 5.21467 13.4321L14.107 4.53848Z" stroke="#2267B2" stroke-width="1.33248" stroke-linecap="round" stroke-linejoin="round"/>
</g>
<defs>
<clipPath id="clip0_1_2242">
<rect width="15.9898" height="15.9898" fill="white"/>
</clipPath>
</defs>
</svg>
