<svg width="16" height="16" viewBox="0 0 16 16" fill="none" xmlns="http://www.w3.org/2000/svg">
<path d="M9.99363 13.9911V8.66114C9.99363 8.48444 9.92344 8.31498 9.7985 8.19003C9.67355 8.06509 9.50409 7.9949 9.32739 7.9949H6.66243C6.48573 7.9949 6.31627 8.06509 6.19132 8.19003C6.06638 8.31498 5.99619 8.48444 5.99619 8.66114V13.9911" stroke="#6B7280" stroke-width="1.33248" stroke-linecap="round" stroke-linejoin="round"/>
<path d="M1.99872 6.66242C1.99867 6.46859 2.04091 6.27708 2.1225 6.10125C2.20408 5.92543 2.32304 5.76952 2.47108 5.6444L7.13477 1.64762C7.37528 1.44435 7.68 1.33283 7.99489 1.33283C8.30979 1.33283 8.61451 1.44435 8.85501 1.64762L13.5187 5.6444C13.6667 5.76952 13.7857 5.92543 13.8673 6.10125C13.9489 6.27708 13.9911 6.46859 13.9911 6.66242V12.6586C13.9911 13.012 13.8507 13.3509 13.6008 13.6008C13.3509 13.8507 13.012 13.9911 12.6586 13.9911H3.3312C2.9778 13.9911 2.63888 13.8507 2.38899 13.6008C2.1391 13.3509 1.99872 13.012 1.99872 12.6586V6.66242Z" stroke="#6B7280" stroke-width="1.33248" stroke-linecap="round" stroke-linejoin="round"/>
</svg>
