<svg width="24" height="24" viewBox="0 0 24 24" fill="none" xmlns="http://www.w3.org/2000/svg">
<path d="M10.9987 21.7279C11.3027 21.9034 11.6475 21.9958 11.9986 21.9958C12.3496 21.9958 12.6945 21.9034 12.9985 21.7279L19.9978 17.7283C20.3015 17.5529 20.5537 17.3008 20.7292 16.9972C20.9047 16.6936 20.9973 16.3492 20.9977 15.9985V7.99928C20.9973 7.6486 20.9047 7.30417 20.7292 7.00055C20.5537 6.69693 20.3015 6.44481 19.9978 6.26946L12.9985 2.26987C12.6945 2.09436 12.3496 2.00195 11.9986 2.00195C11.6475 2.00195 11.3027 2.09436 10.9987 2.26987L3.99941 6.26946C3.6957 6.44481 3.44345 6.69693 3.26795 7.00055C3.09244 7.30417 2.99987 7.6486 2.99951 7.99928V15.9985C2.99987 16.3492 3.09244 16.6936 3.26795 16.9972C3.44345 17.3008 3.6957 17.5529 3.99941 17.7283L10.9987 21.7279Z" stroke="#2267B2" stroke-width="1.99979" stroke-linecap="round" stroke-linejoin="round"/>
<path d="M11.9985 21.9975V11.9985" stroke="#2267B2" stroke-width="1.99979" stroke-linecap="round" stroke-linejoin="round"/>
<path d="M3.28955 6.99951L11.9987 11.999L20.7078 6.99951" stroke="#2267B2" stroke-width="1.99979" stroke-linecap="round" stroke-linejoin="round"/>
<path d="M7.49902 4.26953L16.499 9.41953" stroke="#2267B2" stroke-width="1.99979" stroke-linecap="round" stroke-linejoin="round"/>
</svg>
