<svg width="24" height="24" viewBox="0 0 24 24" fill="none" xmlns="http://www.w3.org/2000/svg">
<path d="M15.9983 20.9974V18.9976C15.9983 17.9369 15.5769 16.9196 14.8269 16.1695C14.0768 15.4194 13.0595 14.998 11.9987 14.998H5.99934C4.93859 14.998 3.92128 15.4194 3.17121 16.1695C2.42114 16.9196 1.99976 17.9369 1.99976 18.9976V20.9974" stroke="#2267B2" stroke-width="1.99979" stroke-linecap="round" stroke-linejoin="round"/>
<path d="M8.99951 11C11.2087 11 12.9995 9.20914 12.9995 7C12.9995 4.79086 11.2087 3 8.99951 3C6.79037 3 4.99951 4.79086 4.99951 7C4.99951 9.20914 6.79037 11 8.99951 11Z" stroke="#2267B2" stroke-width="1.99979" stroke-linecap="round" stroke-linejoin="round"/>
<path d="M21.998 20.9989V18.9989C21.9974 18.1126 21.7024 17.2517 21.1594 16.5512C20.6164 15.8508 19.8562 15.3505 18.998 15.1289" stroke="#2267B2" stroke-width="1.99979" stroke-linecap="round" stroke-linejoin="round"/>
<path d="M15.9983 3.12988C16.8587 3.35018 17.6213 3.85058 18.1659 4.55219C18.7105 5.2538 19.0061 6.11671 19.0061 7.00488C19.0061 7.89305 18.7105 8.75596 18.1659 9.45757C17.6213 10.1592 16.8587 10.6596 15.9983 10.8799" stroke="#2267B2" stroke-width="1.99979" stroke-linecap="round" stroke-linejoin="round"/>
</svg>
