<svg width="20" height="20" viewBox="0 0 20 20" fill="none" xmlns="http://www.w3.org/2000/svg">
<path d="M9.16376 18.1026C9.41705 18.2488 9.70436 18.3258 9.99683 18.3258C10.2893 18.3258 10.5766 18.2488 10.8299 18.1026L16.6614 14.7703C16.9144 14.6242 17.1246 14.4142 17.2708 14.1612C17.417 13.9083 17.4942 13.6213 17.4945 13.3291V6.66455C17.4942 6.37238 17.417 6.08541 17.2708 5.83245C17.1246 5.57949 16.9144 5.36943 16.6614 5.22334L10.8299 1.89107C10.5766 1.74483 10.2893 1.66785 9.99683 1.66785C9.70436 1.66785 9.41705 1.74483 9.16376 1.89107L3.33228 5.22334C3.07924 5.36943 2.86907 5.57949 2.72286 5.83245C2.57664 6.08541 2.49951 6.37238 2.49921 6.66455V13.3291C2.49951 13.6213 2.57664 13.9083 2.72286 14.1612C2.86907 14.4142 3.07924 14.6242 3.33228 14.7703L9.16376 18.1026Z" stroke="white" stroke-width="1.66614" stroke-linecap="round" stroke-linejoin="round"/>
<path d="M9.99683 18.3275V9.99683" stroke="white" stroke-width="1.66614" stroke-linecap="round" stroke-linejoin="round"/>
<path d="M2.7408 5.83148L9.99683 9.99683L17.2529 5.83148" stroke="white" stroke-width="1.66614" stroke-linecap="round" stroke-linejoin="round"/>
<path d="M6.24802 3.55722L13.7456 7.84753" stroke="white" stroke-width="1.66614" stroke-linecap="round" stroke-linejoin="round"/>
</svg>
