<svg preserveAspectRatio="none" width="100%" height="100%" overflow="visible" style="display: block;" viewBox="0 0 19.9937 19.9937" fill="none" xmlns="http://www.w3.org/2000/svg">
<g id="Icon" clip-path="url(#clip0_174_576)">
<path id="Vector" d="M9.99683 1.66614V18.3275" stroke="var(--stroke-0, #22C55E)" stroke-width="1.66614" stroke-linecap="round" stroke-linejoin="round"/>
<path id="Vector_2" d="M14.1622 4.16535H7.91416C7.14086 4.16535 6.39923 4.47254 5.85242 5.01935C5.30561 5.56616 4.99842 6.30779 4.99842 7.08109C4.99842 7.85439 5.30561 8.59602 5.85242 9.14283C6.39923 9.68964 7.14086 9.99683 7.91416 9.99683H12.0795C12.8528 9.99683 13.5944 10.304 14.1412 10.8508C14.6881 11.3976 14.9952 12.1393 14.9952 12.9126C14.9952 13.6859 14.6881 14.4275 14.1412 14.9743C13.5944 15.5211 12.8528 15.8283 12.0795 15.8283H4.99842" stroke="var(--stroke-0, #22C55E)" stroke-width="1.66614" stroke-linecap="round" stroke-linejoin="round"/>
</g>
<defs>
<clipPath id="clip0_174_576">
<rect width="19.9937" height="19.9937" fill="white"/>
</clipPath>
</defs>
</svg>
