<svg preserveAspectRatio="none" width="100%" height="100%" overflow="visible" style="display: block;" viewBox="0 0 23.9975 23.9975" fill="none" xmlns="http://www.w3.org/2000/svg">
<g id="Icon">
<path id="Vector" d="M5.99938 21.9977V3.99959C5.99938 3.46921 6.21007 2.96055 6.58511 2.58552C6.96014 2.21049 7.4688 1.99979 7.99918 1.99979H15.9984C16.5287 1.99979 17.0374 2.21049 17.4124 2.58552C17.7875 2.96055 17.9981 3.46921 17.9981 3.99959V21.9977H5.99938Z" stroke="var(--stroke-0, #2267B2)" stroke-width="1.99979" stroke-linecap="round" stroke-linejoin="round"/>
<path id="Vector_2" d="M5.99938 11.9988H3.99959C3.46921 11.9988 2.96055 12.2095 2.58552 12.5845C2.21049 12.9595 1.99979 13.4682 1.99979 13.9986V19.9979C1.99979 20.5283 2.21049 21.037 2.58552 21.412C2.96055 21.787 3.46921 21.9977 3.99959 21.9977H5.99938" stroke="var(--stroke-0, #2267B2)" stroke-width="1.99979" stroke-linecap="round" stroke-linejoin="round"/>
<path id="Vector_3" d="M17.9981 8.99907H19.9979C20.5283 8.99907 21.037 9.20977 21.412 9.5848C21.787 9.95983 21.9977 10.4685 21.9977 10.9989V19.9979C21.9977 20.5283 21.787 21.037 21.412 21.412C21.037 21.787 20.5283 21.9977 19.9979 21.9977H17.9981" stroke="var(--stroke-0, #2267B2)" stroke-width="1.99979" stroke-linecap="round" stroke-linejoin="round"/>
<path id="Vector_4" d="M9.99897 5.99938H13.999" stroke="var(--stroke-0, #2267B2)" stroke-width="1.99979" stroke-linecap="round" stroke-linejoin="round"/>
<path id="Vector_5" d="M9.99897 9.99897H13.999" stroke="var(--stroke-0, #2267B2)" stroke-width="1.99979" stroke-linecap="round" stroke-linejoin="round"/>
<path id="Vector_6" d="M9.99897 13.9986H13.999" stroke="var(--stroke-0, #2267B2)" stroke-width="1.99979" stroke-linecap="round" stroke-linejoin="round"/>
<path id="Vector_7" d="M9.99897 17.9981H13.999" stroke="var(--stroke-0, #2267B2)" stroke-width="1.99979" stroke-linecap="round" stroke-linejoin="round"/>
</g>
</svg>
