<svg width="20" height="20" viewBox="0 0 20 20" fill="none" xmlns="http://www.w3.org/2000/svg">
<path d="M10.1801 1.66614H9.81356C9.37167 1.66614 8.94788 1.84168 8.63542 2.15414C8.32296 2.4666 8.14742 2.89039 8.14742 3.33228V3.48223C8.14712 3.77441 8.06999 4.06137 7.92377 4.31433C7.77755 4.56729 7.56738 4.77735 7.31435 4.92344L6.95613 5.13171C6.70285 5.27794 6.41553 5.35493 6.12306 5.35493C5.83059 5.35493 5.54328 5.27794 5.28999 5.13171L5.16503 5.06506C4.78271 4.84452 4.32849 4.78469 3.9021 4.8987C3.47571 5.01272 3.11197 5.29127 2.89075 5.6732L2.70748 5.98977C2.48693 6.37209 2.4271 6.82631 2.54112 7.2527C2.65514 7.67909 2.93368 8.04283 3.31562 8.26405L3.44058 8.34736C3.69239 8.49273 3.90178 8.70148 4.04793 8.95286C4.19407 9.20423 4.27189 9.48947 4.27365 9.78023V10.2051C4.27481 10.4987 4.19838 10.7874 4.05209 11.0419C3.90579 11.2965 3.69484 11.5078 3.44058 11.6546L3.31562 11.7296C2.93368 11.9508 2.65514 12.3146 2.54112 12.741C2.4271 13.1674 2.48693 13.6216 2.70748 14.0039L2.89075 14.3205C3.11197 14.7024 3.47571 14.9809 3.9021 15.095C4.32849 15.209 4.78271 15.1491 5.16503 14.9286L5.28999 14.862C5.54328 14.7157 5.83059 14.6387 6.12306 14.6387C6.41553 14.6387 6.70285 14.7157 6.95613 14.862L7.31435 15.0702C7.56738 15.2163 7.77755 15.4264 7.92377 15.6793C8.06999 15.9323 8.14712 16.2193 8.14742 16.5114V16.6614C8.14742 17.1033 8.32296 17.5271 8.63542 17.8395C8.94788 18.152 9.37167 18.3275 9.81356 18.3275H10.1801C10.622 18.3275 11.0458 18.152 11.3582 17.8395C11.6707 17.5271 11.8462 17.1033 11.8462 16.6614V16.5114C11.8465 16.2193 11.9237 15.9323 12.0699 15.6793C12.2161 15.4264 12.4263 15.2163 12.6793 15.0702L13.0375 14.862C13.2908 14.7157 13.5781 14.6387 13.8706 14.6387C14.1631 14.6387 14.4504 14.7157 14.7037 14.862L14.8286 14.9286C15.211 15.1491 15.6652 15.209 16.0916 15.095C16.518 14.9809 16.8817 14.7024 17.1029 14.3205L17.2862 13.9956C17.5067 13.6132 17.5666 13.159 17.4525 12.7326C17.3385 12.3062 17.06 11.9425 16.6781 11.7213L16.5531 11.6546C16.2988 11.5078 16.0879 11.2965 15.9416 11.0419C15.7953 10.7874 15.7189 10.4987 15.72 10.2051V9.78856C15.7189 9.49497 15.7953 9.20629 15.9416 8.95174C16.0879 8.69719 16.2988 8.48582 16.5531 8.33902L16.6781 8.26405C17.06 8.04283 17.3385 7.67909 17.4525 7.2527C17.5666 6.82631 17.5067 6.37209 17.2862 5.98977L17.1029 5.6732C16.8817 5.29127 16.518 5.01272 16.0916 4.8987C15.6652 4.78469 15.211 4.84452 14.8286 5.06506L14.7037 5.13171C14.4504 5.27794 14.1631 5.35493 13.8706 5.35493C13.5781 5.35493 13.2908 5.27794 13.0375 5.13171L12.6793 4.92344C12.4263 4.77735 12.2161 4.56729 12.0699 4.31433C11.9237 4.06137 11.8465 3.77441 11.8462 3.48223V3.33228C11.8462 2.89039 11.6707 2.4666 11.3582 2.15414C11.0458 1.84168 10.622 1.66614 10.1801 1.66614Z" stroke="white" stroke-width="1.66614" stroke-linecap="round" stroke-linejoin="round"/>
<path d="M9.99683 12.496C11.3771 12.496 12.496 11.3771 12.496 9.99683C12.496 8.61655 11.3771 7.49762 9.99683 7.49762C8.61656 7.49762 7.49763 8.61655 7.49763 9.99683C7.49763 11.3771 8.61656 12.496 9.99683 12.496Z" stroke="white" stroke-width="1.66614" stroke-linecap="round" stroke-linejoin="round"/>
</svg>
