<svg width="20" height="20" viewBox="0 0 20 20" fill="none" xmlns="http://www.w3.org/2000/svg">
<path d="M11.6652 14.9981V4.99937C11.6652 4.5574 11.4896 4.13353 11.1771 3.82101C10.8646 3.50849 10.4407 3.33292 9.99875 3.33292H3.33292C2.89094 3.33292 2.46707 3.50849 2.15455 3.82101C1.84203 4.13353 1.66646 4.5574 1.66646 4.99937V14.1649C1.66646 14.3859 1.75424 14.5978 1.91051 14.7541C2.06677 14.9103 2.2787 14.9981 2.49969 14.9981H4.16615" stroke="white" stroke-width="1.66646" stroke-linecap="round" stroke-linejoin="round"/>
<path d="M12.4984 14.9981H7.49906" stroke="white" stroke-width="1.66646" stroke-linecap="round" stroke-linejoin="round"/>
<path d="M15.8314 14.9981H17.4978C17.7188 14.9981 17.9307 14.9103 18.087 14.7541C18.2433 14.5978 18.331 14.3859 18.331 14.1649V11.1236C18.3307 10.9345 18.2661 10.7512 18.1477 10.6037L15.2481 6.97913C15.1702 6.88154 15.0713 6.80272 14.9588 6.74849C14.8463 6.69426 14.7231 6.66601 14.5982 6.66583H11.6652" stroke="white" stroke-width="1.66646" stroke-linecap="round" stroke-linejoin="round"/>
<path d="M14.1649 16.6646C15.0853 16.6646 15.8314 15.9185 15.8314 14.9981C15.8314 14.0778 15.0853 13.3317 14.1649 13.3317C13.2445 13.3317 12.4984 14.0778 12.4984 14.9981C12.4984 15.9185 13.2445 16.6646 14.1649 16.6646Z" stroke="white" stroke-width="1.66646" stroke-linecap="round" stroke-linejoin="round"/>
<path d="M5.8326 16.6646C6.75296 16.6646 7.49906 15.9185 7.49906 14.9981C7.49906 14.0778 6.75296 13.3317 5.8326 13.3317C4.91224 13.3317 4.16615 14.0778 4.16615 14.9981C4.16615 15.9185 4.91224 16.6646 5.8326 16.6646Z" stroke="white" stroke-width="1.66646" stroke-linecap="round" stroke-linejoin="round"/>
</svg>
