<svg preserveAspectRatio="none" width="100%" height="100%" overflow="visible" style="display: block;" viewBox="0 0 14.3857 15.9898" fill="none" xmlns="http://www.w3.org/2000/svg">
<g id="Icon">
<path id="Vector" d="M13.1869 10.944V12.7422C13.1876 12.9091 13.1534 13.0744 13.0865 13.2273C13.0196 13.3803 12.9215 13.5176 12.7985 13.6304C12.6755 13.7433 12.5303 13.8292 12.3722 13.8827C12.214 13.9362 12.0464 13.956 11.8802 13.941C10.0357 13.7406 8.26398 13.1103 6.70733 12.1008C5.25907 11.1805 4.03119 9.95266 3.11091 8.50439C2.0979 6.94067 1.46749 5.16031 1.27074 3.30756C1.25576 3.1418 1.27546 2.97475 1.32858 2.81702C1.3817 2.6593 1.46708 2.51436 1.57929 2.39144C1.6915 2.26852 1.82807 2.17032 1.98031 2.10307C2.13255 2.03582 2.29712 2.00102 2.46355 2.00086H4.26176C4.55266 1.998 4.83467 2.10101 5.05523 2.29069C5.27579 2.48037 5.41986 2.74379 5.46057 3.03183C5.53647 3.6073 5.67723 4.17234 5.88016 4.71616C5.9608 4.9307 5.97825 5.16386 5.93045 5.38802C5.88264 5.61218 5.77158 5.81793 5.61042 5.9809L4.84918 6.74215C5.70246 8.24278 6.94497 9.48529 8.4456 10.3386L9.20685 9.57733C9.36982 9.41617 9.57557 9.30511 9.79973 9.2573C10.0239 9.2095 10.257 9.22695 10.4716 9.3076C11.0154 9.51052 11.5804 9.65128 12.1559 9.72718C12.4471 9.76826 12.713 9.91492 12.9031 10.1393C13.0932 10.3636 13.1942 10.65 13.1869 10.944Z" stroke="var(--stroke-0, #6B7280)" stroke-width="1.19881" stroke-linecap="round" stroke-linejoin="round"/>
</g>
</svg>
