<svg preserveAspectRatio="none" width="100%" height="100%" overflow="visible" style="display: block;" viewBox="0 0 11.9988 11.9988" fill="none" xmlns="http://www.w3.org/2000/svg">
<g id="Icon" clip-path="url(#clip0_231_167)">
<path id="Vector" d="M9.999 6.49935C9.999 8.9991 8.24917 10.249 6.16938 10.9739C6.06048 11.0108 5.94217 11.009 5.83442 10.9689C3.74963 10.249 1.9998 8.9991 1.9998 6.49935V2.9997C1.9998 2.86711 2.05247 2.73994 2.14623 2.64618C2.23999 2.55242 2.36716 2.49975 2.49975 2.49975C3.49965 2.49975 4.74952 1.89981 5.61944 1.13989C5.72535 1.04939 5.86009 0.999675 5.9994 0.999675C6.13871 0.999675 6.27345 1.04939 6.37936 1.13989C7.25427 1.90481 8.49915 2.49975 9.49905 2.49975C9.63164 2.49975 9.75881 2.55242 9.85257 2.64618C9.94633 2.73994 9.999 2.86711 9.999 2.9997V6.49935Z" stroke="var(--stroke-0, #2267B2)" stroke-width="0.9999" stroke-linecap="round" stroke-linejoin="round"/>
</g>
<defs>
<clipPath id="clip0_231_167">
<rect width="11.9988" height="11.9988" fill="white"/>
</clipPath>
</defs>
</svg>
