<svg preserveAspectRatio="none" width="100%" height="100%" overflow="visible" style="display: block;" viewBox="0 0 23.9975 23.9975" fill="none" xmlns="http://www.w3.org/2000/svg">
<g id="Icon">
<path id="Vector" d="M15.9983 20.9978V18.998C15.9983 17.9373 15.5769 16.92 14.8269 16.1699C14.0768 15.4198 13.0595 14.9984 11.9987 14.9984H5.99937C4.93862 14.9984 3.92131 15.4198 3.17124 16.1699C2.42118 16.92 1.99979 17.9373 1.99979 18.998V20.9978" stroke="var(--stroke-0, #EF4444)" stroke-width="1.99979" stroke-linecap="round" stroke-linejoin="round"/>
<path id="Vector_2" d="M8.99948 10.9997C11.2086 10.9997 12.9995 9.20883 12.9995 6.99969C12.9995 4.79055 11.2086 2.99969 8.99948 2.99969C6.79034 2.99969 4.99948 4.79055 4.99948 6.99969C4.99948 9.20883 6.79034 10.9997 8.99948 10.9997Z" stroke="var(--stroke-0, #EF4444)" stroke-width="1.99979" stroke-linecap="round" stroke-linejoin="round"/>
<path id="Vector_3" d="M21.998 20.9984V18.9984C21.9974 18.1122 21.7024 17.2512 21.1594 16.5507C20.6164 15.8503 19.8561 15.35 18.998 15.1284" stroke="var(--stroke-0, #EF4444)" stroke-width="1.99979" stroke-linecap="round" stroke-linejoin="round"/>
<path id="Vector_4" d="M15.9983 3.12967C16.8587 3.34998 17.6214 3.85038 18.166 4.55198C18.7106 5.25359 19.0062 6.1165 19.0062 7.00467C19.0062 7.89284 18.7106 8.75575 18.166 9.45736C17.6214 10.159 16.8587 10.6594 15.9983 10.8797" stroke="var(--stroke-0, #EF4444)" stroke-width="1.99979" stroke-linecap="round" stroke-linejoin="round"/>
</g>
</svg>
