<svg preserveAspectRatio="none" width="100%" height="100%" overflow="visible" style="display: block;" viewBox="0 0 23.9975 23.9975" fill="none" xmlns="http://www.w3.org/2000/svg">
<g id="Icon">
<path id="Vector" d="M19.9979 12.9986C19.9979 17.9981 16.4983 20.4979 12.3387 21.9477C12.1209 22.0215 11.8843 22.018 11.6688 21.9377C7.49922 20.4979 3.99958 17.9981 3.99958 12.9986V5.99938C3.99958 5.73419 4.10493 5.47986 4.29245 5.29234C4.47996 5.10483 4.73429 4.99948 4.99948 4.99948C6.99927 4.99948 9.49901 3.7996 11.2388 2.27976C11.4507 2.09878 11.7201 1.99934 11.9987 1.99934C12.2774 1.99934 12.5468 2.09878 12.7587 2.27976C14.5085 3.8096 16.9982 4.99948 18.998 4.99948C19.2632 4.99948 19.5175 5.10483 19.7051 5.29234C19.8926 5.47986 19.9979 5.73419 19.9979 5.99938V12.9986Z" stroke="var(--stroke-0, #F59E0B)" stroke-width="1.99979" stroke-linecap="round" stroke-linejoin="round"/>
</g>
</svg>
